<svg id="Layer_1" data-name="Layer 1" xmlns="http://www.w3.org/2000/svg" viewBox="0 0 110 80"><defs><style>.cls-1{fill:#e30613;}.cls-2{fill:#fff;}</style></defs><path class="cls-1" d="M47.51,2.5,7.23,17.75a7.84,7.84,0,0,0-4.48,7V36.13L43,20.88c2.47-.93,4.47-4.05,4.47-7h0Z"/><path class="cls-1" d="M7.23,55a7.86,7.86,0,0,0-4.48,7V73.37l13.43-5.08a7.86,7.86,0,0,0,4.48-7h0V49.9Z"/><path class="cls-1" d="M2.75,43.33V54.75L33.21,43.22c2.47-.93,4.47-4,4.47-7h0V24.84L7.23,36.36a7.86,7.86,0,0,0-4.48,7"/><polygon class="cls-2" points="26.66 49.97 26.66 54.45 31.59 54.45 31.59 55.19 26.66 55.19 26.66 60.13 25.83 60.13 25.83 49.24 32.44 49.24 32.44 49.97 26.66 49.97"/><path class="cls-2" d="M38.13,60.13v-.87a2.75,2.75,0,0,1-2.17,1,2.7,2.7,0,0,1-2-.7,2.78,2.78,0,0,1-.77-2.05V52.75H34v4.58c0,1.42.72,2.2,2,2.2a2,2,0,0,0,2.08-2.2V52.75h.78v7.38Z"/><path class="cls-2" d="M45.74,60.13V55.55c0-1.42-.72-2.2-2-2.2a2,2,0,0,0-2.08,2.2v4.58h-.78V52.75h.78v.88a3,3,0,0,1,4.13-.26,2.75,2.75,0,0,1,.77,2.05v4.71Z"/><path class="cls-2" d="M50.91,53.35c-1.81,0-2.08,1.56-2.08,3.09s.27,3.09,2.08,3.09S53,58,53,56.44s-.28-3.09-2.08-3.09M53,60.13v-1a2.44,2.44,0,0,1-2.19,1,2.58,2.58,0,0,1-1.8-.64,4.44,4.44,0,0,1-1-3.14,4.4,4.4,0,0,1,1-3.13,2.54,2.54,0,0,1,1.8-.65,2.46,2.46,0,0,1,2.19,1V49.24h.78V60.13Z"/><path class="cls-2" d="M60.1,56.61H57.8c-1.27,0-1.88.5-1.88,1.48s.6,1.44,1.93,1.44A2.43,2.43,0,0,0,59.69,59a1.87,1.87,0,0,0,.41-1.4Zm0,3.52v-.74a2.75,2.75,0,0,1-2.25.83,2.71,2.71,0,0,1-2.17-.67,2.12,2.12,0,0,1-.54-1.44c0-1.35,1-2.13,2.57-2.13H60.1v-.82c0-1.18-.58-1.81-2.08-1.81a2.12,2.12,0,0,0-2,.93l-.56-.48A2.8,2.8,0,0,1,58,52.66c1.94,0,2.86.87,2.86,2.42v5.05Z"/><path class="cls-2" d="M72.57,60.13V55.55c0-1.42-.72-2.2-2-2.2a1.94,1.94,0,0,0-2.08,2.07v4.71h-.78V55.55c0-1.42-.72-2.2-2-2.2a2,2,0,0,0-2.08,2.2v4.58h-.78V52.75h.78v.88a2.78,2.78,0,0,1,2.18-1A2.53,2.53,0,0,1,68.12,54a2.84,2.84,0,0,1,2.51-1.35,2.54,2.54,0,0,1,2.7,2.76v4.71Z"/><path class="cls-2" d="M79.72,54.59a2.1,2.1,0,0,0-3.83,0A3.66,3.66,0,0,0,75.63,56H80a3.47,3.47,0,0,0-.26-1.39m-4.09,2c0,1.87.85,2.91,2.41,2.91a2.56,2.56,0,0,0,2-.89l.58.46A3.35,3.35,0,0,1,78,60.22c-2,0-3.14-1.32-3.14-3.78s1.11-3.78,3-3.78,3,1.35,3,3.6v.35Z"/><path class="cls-2" d="M87.17,60.13V55.55c0-1.42-.72-2.2-2-2.2a2,2,0,0,0-2.08,2.2v4.58h-.78V52.75h.78v.88a3,3,0,0,1,4.13-.26A2.75,2.75,0,0,1,88,55.42v4.71Z"/><path class="cls-2" d="M91.65,60.13a1.72,1.72,0,0,1-1.77-1.93V53.34h-1v-.59h1V50.4h.78v2.35h1.67v.59H90.66v4.87c0,.77.35,1.23,1.13,1.23h.54v.69Z"/><path class="cls-2" d="M98.16,56.61h-2.3c-1.26,0-1.88.5-1.88,1.48s.6,1.44,1.93,1.44A2.39,2.39,0,0,0,97.74,59a1.83,1.83,0,0,0,.42-1.4Zm0,3.52v-.74a2.75,2.75,0,0,1-2.25.83,2.71,2.71,0,0,1-2.17-.67,2.12,2.12,0,0,1-.54-1.44c0-1.35,1-2.13,2.57-2.13h2.39v-.82c0-1.18-.58-1.81-2.08-1.81a2.12,2.12,0,0,0-2,.93l-.56-.48a2.78,2.78,0,0,1,2.6-1.14c1.94,0,2.86.87,2.86,2.42v5.05Z"/><path class="cls-2" d="M102.57,60.13a1.68,1.68,0,0,1-1.77-1.92v-9h.78v9c0,.83.26,1.24,1.13,1.24h.54v.69Z"/><path class="cls-1" d="M33.49,70.13a6,6,0,0,1-.23,1.78,3.24,3.24,0,0,1-.75,1.29,4,4,0,0,1-3,1.25,4.13,4.13,0,0,1-1.07-.14,3.55,3.55,0,0,1-1-.4,3.93,3.93,0,0,1-.82-.62,3.36,3.36,0,0,1-.74-1.12,4.35,4.35,0,0,1-.27-1.28c0-.47-.06-1.13-.06-2,0-.66,0-1.19,0-1.58a8.12,8.12,0,0,1,.12-1.07,3.06,3.06,0,0,1,.31-.91,3.21,3.21,0,0,1,.61-.83,3.9,3.9,0,0,1,2.86-1.16,4.2,4.2,0,0,1,2,.44A3.51,3.51,0,0,1,32.8,65a4.44,4.44,0,0,1,.67,1.73H31.8a3,3,0,0,0-.44-1,2,2,0,0,0-.78-.65,2.45,2.45,0,0,0-1.08-.23,2.28,2.28,0,0,0-.89.18,2,2,0,0,0-.72.49,2.27,2.27,0,0,0-.53,1.1,13.18,13.18,0,0,0-.13,2.29c0,.58,0,1,0,1.36a7.49,7.49,0,0,0,.1.9,2.31,2.31,0,0,0,.2.64,2.61,2.61,0,0,0,.34.5,2.12,2.12,0,0,0,.71.48,2.41,2.41,0,0,0,2.68-.59,2.53,2.53,0,0,0,.55-1.71v-.62H29.5v-1.4h4Z"/><path class="cls-1" d="M40.43,67.23l-1.18,1.18a1.91,1.91,0,0,0-.52-.39,1.46,1.46,0,0,0-.64-.12,1.52,1.52,0,0,0-.78.21,1.57,1.57,0,0,0-.56.61,1.92,1.92,0,0,0-.21.92v4.72H35V66.59h1.54v.84a2.06,2.06,0,0,1,.86-.69,2.84,2.84,0,0,1,1.2-.25,2.66,2.66,0,0,1,1,.17A2.41,2.41,0,0,1,40.43,67.23Z"/><path class="cls-1" d="M47.05,70.46a7,7,0,0,1-.19,1.8,2.86,2.86,0,0,1-.73,1.27,3.39,3.39,0,0,1-4.64,0,2.94,2.94,0,0,1-.72-1.27,8.11,8.11,0,0,1,0-3.58,3,3,0,0,1,.72-1.27,2.71,2.71,0,0,1,.59-.47,3.05,3.05,0,0,1,.78-.33,3.61,3.61,0,0,1,.94-.12,3.37,3.37,0,0,1,1.36.25,2.85,2.85,0,0,1,1,.67,2.88,2.88,0,0,1,.72,1.27A6.47,6.47,0,0,1,47.05,70.46Zm-1.56,0a6.48,6.48,0,0,0-.11-1.28,1.6,1.6,0,0,0-.43-.85,1.51,1.51,0,0,0-1.15-.44,1.54,1.54,0,0,0-1.14.44,1.67,1.67,0,0,0-.42.85,7.44,7.44,0,0,0,0,2.55,1.67,1.67,0,0,0,.42.85,1.55,1.55,0,0,0,1.14.46A1.52,1.52,0,0,0,45,72.59a1.6,1.6,0,0,0,.43-.85A6.45,6.45,0,0,0,45.49,70.47Z"/><path class="cls-1" d="M54.62,74.36H53.1v-.78a2.76,2.76,0,0,1-.94.64,2.94,2.94,0,0,1-1.14.23,2.65,2.65,0,0,1-1.91-.71,2.38,2.38,0,0,1-.61-.95,4.22,4.22,0,0,1-.17-1.24v-5h1.56v4.73a1.76,1.76,0,0,0,.44,1.3,1.51,1.51,0,0,0,1.12.43,1.62,1.62,0,0,0,1.16-.43,1.75,1.75,0,0,0,.45-1.3V66.59h1.56Z"/><path class="cls-1" d="M62.71,70.46a12.7,12.7,0,0,1-.06,1.31,4.75,4.75,0,0,1-.26,1.1,2.46,2.46,0,0,1-.56.89,2.23,2.23,0,0,1-.82.5,3.08,3.08,0,0,1-1.07.19,2.9,2.9,0,0,1-1.14-.21,2.29,2.29,0,0,1-.89-.68V77.5H56.34V66.59h1.54v.82a2.5,2.5,0,0,1,.91-.72,3.29,3.29,0,0,1,2.23,0,2,2,0,0,1,.81.5,2.46,2.46,0,0,1,.56.89,4.56,4.56,0,0,1,.26,1.09A12.5,12.5,0,0,1,62.71,70.46Zm-1.57,0A6.5,6.5,0,0,0,61,69.12a1.7,1.7,0,0,0-.47-.89,1.74,1.74,0,0,0-2,0,1.68,1.68,0,0,0-.48.89,6.5,6.5,0,0,0-.12,1.35A6.56,6.56,0,0,0,58,71.82a1.64,1.64,0,0,0,.48.89,1.41,1.41,0,0,0,1,.34,1.28,1.28,0,0,0,1.29-.68A4.65,4.65,0,0,0,61.14,70.47Z"/></svg>